<svg width="1988" height="1088" viewBox="0 0 1988 1088" fill="none" xmlns="http://www.w3.org/2000/svg">
<g filter="url(#filter0_d)">
<g filter="url(#filter1_d)">
<rect x="4" width="1980" height="1080" fill="url(#paint0_linear)"/>
</g>
<ellipse cx="350.5" cy="356" rx="146.5" ry="149" fill="url(#paint1_linear)"/>
<ellipse cx="1196.5" cy="854" rx="146.5" ry="149" fill="url(#paint2_linear)"/>
<path fill-rule="evenodd" clip-rule="evenodd" d="M263.999 1080H4V857.5C16.6598 855.2 29.6925 854 43 854C165.055 854 264 954.96 264 1079.5C264 1079.67 264 1079.83 263.999 1080Z" fill="url(#paint3_linear)"/>
<path fill-rule="evenodd" clip-rule="evenodd" d="M1984 710.145V1080H1734.65C1686.56 1038.63 1656 976.708 1656 907.5C1656 782.96 1754.95 682 1877 682C1915.82 682 1952.3 692.211 1984 710.145Z" fill="url(#paint4_linear)"/>
</g>
<defs>
<filter id="filter0_d" x="0" y="0" width="1988" height="1088" filterUnits="userSpaceOnUse" color-interpolation-filters="sRGB">
<feFlood flood-opacity="0" result="BackgroundImageFix"/>
<feColorMatrix in="SourceAlpha" type="matrix" values="0 0 0 0 0 0 0 0 0 0 0 0 0 0 0 0 0 0 127 0"/>
<feOffset dy="4"/>
<feGaussianBlur stdDeviation="2"/>
<feColorMatrix type="matrix" values="0 0 0 0 0 0 0 0 0 0 0 0 0 0 0 0 0 0 0.25 0"/>
<feBlend mode="normal" in2="BackgroundImageFix" result="effect1_dropShadow"/>
<feBlend mode="normal" in="SourceGraphic" in2="effect1_dropShadow" result="shape"/>
</filter>
<filter id="filter1_d" x="0" y="0" width="1988" height="1088" filterUnits="userSpaceOnUse" color-interpolation-filters="sRGB">
<feFlood flood-opacity="0" result="BackgroundImageFix"/>
<feColorMatrix in="SourceAlpha" type="matrix" values="0 0 0 0 0 0 0 0 0 0 0 0 0 0 0 0 0 0 127 0"/>
<feOffset dy="4"/>
<feGaussianBlur stdDeviation="2"/>
<feColorMatrix type="matrix" values="0 0 0 0 0 0 0 0 0 0 0 0 0 0 0 0 0 0 0.25 0"/>
<feBlend mode="normal" in2="BackgroundImageFix" result="effect1_dropShadow"/>
<feBlend mode="normal" in="SourceGraphic" in2="effect1_dropShadow" result="shape"/>
</filter>
<linearGradient id="paint0_linear" x1="994" y1="0" x2="994" y2="1080" gradientUnits="userSpaceOnUse">
<stop stop-color="#4169E1"/>
<stop offset="0.166667" stop-color="#4172E1"/>
<stop offset="1" stop-color="#40CEDD"/>
</linearGradient>
<linearGradient id="paint1_linear" x1="350.5" y1="207" x2="350.5" y2="505" gradientUnits="userSpaceOnUse">
<stop stop-color="#C4C4C4"/>
<stop offset="1" stop-color="#C4C4C4" stop-opacity="0"/>
</linearGradient>
<linearGradient id="paint2_linear" x1="1196.5" y1="705" x2="1196.5" y2="1003" gradientUnits="userSpaceOnUse">
<stop stop-color="#C4C4C4"/>
<stop offset="1" stop-color="#C4C4C4" stop-opacity="0"/>
</linearGradient>
<linearGradient id="paint3_linear" x1="43" y1="854" x2="43" y2="1305" gradientUnits="userSpaceOnUse">
<stop stop-color="#C4C4C4"/>
<stop offset="1" stop-color="#C4C4C4" stop-opacity="0"/>
</linearGradient>
<linearGradient id="paint4_linear" x1="1877" y1="682" x2="1877" y2="1133" gradientUnits="userSpaceOnUse">
<stop stop-color="#C4C4C4"/>
<stop offset="1" stop-color="#C4C4C4" stop-opacity="0"/>
</linearGradient>
</defs>
</svg>
